<svg xmlns="http://www.w3.org/2000/svg" xmlns:xlink="http://www.w3.org/1999/xlink" width="500" zoomAndPan="magnify" viewBox="0 0 375 374.999991" height="500" preserveAspectRatio="xMidYMid meet" version="1.0"><defs><clipPath id="b9865bf53c"><path d="M 117 65.832031 L 267 65.832031 L 267 226 L 117 226 Z M 117 65.832031 " clip-rule="nonzero"/></clipPath><clipPath id="a38a6c192f"><path d="M 52 226 L 332 226 L 332 374.582031 L 52 374.582031 Z M 52 226 " clip-rule="nonzero"/></clipPath><clipPath id="ec2aacf271"><path d="M 35 0 L 341.875 0 L 341.875 191 L 35 191 Z M 35 0 " clip-rule="nonzero"/></clipPath></defs><g clip-path="url(#b9865bf53c)"><path fill="#000000" d="M 191.9375 225.984375 C 233.210938 225.984375 266.785156 182.117188 266.785156 140.789062 C 266.785156 99.460938 233.210938 65.832031 191.9375 65.832031 C 150.664062 65.832031 117.085938 99.460938 117.085938 140.789062 C 117.09375 182.113281 150.667969 225.984375 191.9375 225.984375 Z M 191.9375 225.984375 " fill-opacity="1" fill-rule="nonzero"/></g><g clip-path="url(#a38a6c192f)"><path fill="#000000" d="M 248.128906 226.75 C 233.609375 237.828125 215.496094 244.417969 195.878906 244.417969 L 188 244.417969 C 168.375 244.417969 150.257812 237.824219 135.746094 226.75 C 88.335938 234.425781 52.136719 275.570312 52.136719 325.203125 C 52.136719 352.472656 114.726562 374.582031 191.9375 374.582031 C 269.148438 374.582031 331.738281 352.472656 331.738281 325.203125 C 331.738281 275.570312 295.535156 234.425781 248.128906 226.75 Z M 248.128906 226.75 " fill-opacity="1" fill-rule="nonzero"/></g><g clip-path="url(#ec2aacf271)"><path fill="#000000" d="M 265.226562 27.90625 L 190.441406 0.332031 L 189.570312 0.015625 L 188.695312 0.332031 L 113.90625 27.90625 L 37.382812 56.113281 L 53.445312 62.035156 L 71.988281 68.875 C 67.964844 76.585938 64.238281 91.136719 69.273438 116.667969 C 65.417969 118.21875 62.6875 121.992188 62.6875 126.414062 C 62.6875 129.574219 64.082031 132.402344 66.289062 134.332031 C 64.003906 161.914062 45.390625 165.753906 39.300781 166.265625 C 37.390625 166.429688 35.664062 167.703125 35.199219 169.574219 C 33.234375 177.558594 54.859375 185.628906 67.695312 189.667969 C 73.367188 191.449219 79.53125 188.816406 82.085938 183.433594 C 92.058594 162.453125 85.183594 142.398438 80.964844 133.425781 C 82.632812 131.570312 83.652344 129.117188 83.652344 126.417969 C 83.652344 121.761719 80.628906 117.824219 76.445312 116.441406 C 75.195312 106.304688 73.460938 83.863281 80.726562 72.097656 L 101.308594 79.6875 C 104.75 67.847656 125.085938 63.632812 132.183594 62.167969 C 147.753906 58.945312 168.601562 57.167969 190.886719 57.167969 C 213.0625 57.167969 233.796875 58.929688 249.257812 62.132812 C 256.179688 63.566406 275.824219 67.636719 279.75 78.976562 L 325.691406 62.039062 L 341.757812 56.117188 Z M 265.226562 27.90625 " fill-opacity="1" fill-rule="nonzero"/></g><path fill="#000000" d="M 107.433594 83.230469 L 107.433594 131.84375 C 131.292969 116.046875 159.890625 106.847656 190.628906 106.847656 C 221.367188 106.847656 249.960938 116.046875 273.824219 131.84375 L 273.824219 83.125 C 273.8125 57.28125 107.421875 57.386719 107.433594 83.230469 Z M 107.433594 83.230469 " fill-opacity="1" fill-rule="nonzero"/></svg>